<?xml version="1.0" encoding="UTF-8"?>
<svg id="Layer_2" data-name="Layer 2" xmlns="http://www.w3.org/2000/svg" viewBox="0 0 835.7 111.51">
  <g id="Layer_1-2" data-name="Layer 1">
    <g>
      <polygon points="64.76 22.9 32.38 22.9 0 22.9 0 55.28 32.38 55.28 55.28 55.28 55.28 78.18 55.28 110.56 87.66 110.56 87.66 78.18 87.66 45.79 87.66 45.79 64.76 45.79 64.76 22.9"/>
      <rect y="78.18" width="32.38" height="32.38"/>
      <rect x="71.47" y="6.71" width="32.38" height="32.38" transform="translate(9.48 68.69) rotate(-45)"/>
      <polygon points="162.56 110.77 222.71 110.77 222.71 98.79 175.65 98.79 175.65 73.47 217.27 73.47 217.27 61.61 175.65 61.61 175.65 35.43 222.71 35.43 222.71 23.45 162.56 23.45 162.56 110.77"/>
      <rect x="235.93" y="23.45" width="12.72" height="87.32"/>
      <path d="M315.28,55.07c-2.43-3.13-5.5-5.62-9.2-7.47-3.71-1.85-8.07-2.78-13.09-2.78-6.59,0-12.21,1.44-16.86,4.32-4.65,2.88-8.19,6.84-10.62,11.86-2.43,5.02-3.64,10.83-3.64,17.42s1.17,12.25,3.52,17.23c2.35,4.98,5.82,8.87,10.44,11.67,4.61,2.8,10.33,4.2,17.17,4.2,4.28,0,8.38-.66,12.29-1.98,3.91-1.32,7.25-3.4,10-6.24,2.76-2.84,4.67-6.44,5.74-10.81h-12.85c-.66,1.9-1.79,3.44-3.4,4.63-1.61,1.2-3.42,2.06-5.43,2.59-2.02.54-4.1.8-6.24.8-3.87,0-7.12-.8-9.76-2.41-2.64-1.61-4.67-3.77-6.11-6.48-1.44-2.72-2.29-5.72-2.53-9.02h47.06c.08-.91.16-1.77.25-2.59.08-.82.12-1.69.12-2.59.16-4.12-.33-8.09-1.48-11.92-1.15-3.83-2.95-7.31-5.37-10.44ZM274.96,72.48c.25-2.96,1.05-5.7,2.41-8.21,1.36-2.51,3.29-4.55,5.81-6.11,2.51-1.56,5.66-2.35,9.45-2.35,3.46,0,6.42.72,8.89,2.16,2.47,1.44,4.4,3.42,5.8,5.93,1.4,2.51,2.14,5.37,2.22,8.58h-34.58Z"/>
      <polygon points="361.04 99.28 342.27 45.68 328.06 45.68 352.4 110.77 369.69 110.77 394.02 45.68 379.69 45.68 361.04 99.28"/>
      <path d="M429.47,44.81c-3.05,0-6.03.35-8.96,1.05-2.92.7-5.66,1.79-8.21,3.27-2.55,1.48-4.69,3.36-6.42,5.62-1.73,2.27-2.84,4.96-3.33,8.09h13.34c.49-1.65,1.4-2.96,2.72-3.95,1.32-.99,2.9-1.71,4.75-2.16,1.85-.45,3.81-.68,5.87-.68,3.46,0,6.24.68,8.34,2.04,2.1,1.36,3.64,3.25,4.63,5.68.99,2.43,1.48,5.25,1.48,8.46h-15.93c-3.62,0-7.1.31-10.44.93-3.33.62-6.28,1.65-8.83,3.09-2.55,1.44-4.59,3.46-6.11,6.05-1.52,2.59-2.29,5.87-2.29,9.82,0,3.29.64,6.16,1.92,8.58,1.28,2.43,2.98,4.45,5.13,6.05,2.14,1.61,4.59,2.8,7.35,3.58,2.76.78,5.62,1.17,8.58,1.17,2.14,0,4.49-.21,7.04-.62,2.55-.41,5.13-1.28,7.72-2.59,2.59-1.32,4.84-3.25,6.73-5.8l.49,8.28h10.99v-35.2c0-9.55-2.08-17.06-6.24-22.54-4.16-5.48-10.93-8.21-20.32-8.21ZM443.67,84.71c0,3.29-.78,6.16-2.35,8.58-1.57,2.43-3.75,4.28-6.55,5.56-2.8,1.28-6.05,1.91-9.76,1.91-2.06,0-4.04-.35-5.93-1.05-1.9-.7-3.42-1.75-4.57-3.15-1.15-1.4-1.73-3.21-1.73-5.43s.56-4.08,1.67-5.31c1.11-1.24,2.59-2.12,4.45-2.66,1.85-.53,3.91-.86,6.18-.99,2.26-.12,4.59-.19,6.98-.19h11.61v2.72Z"/>
      <path d="M503.76,99.04c-1.44.66-3.11.99-5,.99-2.47-.08-4.37-.66-5.68-1.73-1.32-1.07-2.2-2.55-2.66-4.45-.45-1.89-.68-3.99-.68-6.3v-30.51h19.89v-11.36h-19.89v-18.9h-12.72v18.9h-10.38v11.36h10.38v32.61c0,6.92,1.5,12.29,4.51,16.12,3,3.83,8.01,5.74,15.01,5.74,1.89,0,3.75-.17,5.56-.49,1.81-.33,3.56-.88,5.25-1.67,1.69-.78,3.31-1.79,4.88-3.03l-4.94-9.51c-.91.82-2.08,1.57-3.52,2.22Z"/>
      <path d="M572.31,55.07c-2.43-3.13-5.5-5.62-9.2-7.47-3.71-1.85-8.07-2.78-13.09-2.78-6.59,0-12.21,1.44-16.86,4.32-4.65,2.88-8.19,6.84-10.62,11.86-2.43,5.02-3.64,10.83-3.64,17.42s1.17,12.25,3.52,17.23c2.35,4.98,5.82,8.87,10.44,11.67,4.61,2.8,10.33,4.2,17.17,4.2,4.28,0,8.38-.66,12.29-1.98,3.91-1.32,7.25-3.4,10-6.24,2.76-2.84,4.67-6.44,5.74-10.81h-12.85c-.66,1.9-1.79,3.44-3.4,4.63-1.61,1.2-3.42,2.06-5.43,2.59-2.02.54-4.1.8-6.24.8-3.87,0-7.12-.8-9.76-2.41-2.64-1.61-4.67-3.77-6.11-6.48-1.44-2.72-2.29-5.72-2.53-9.02h47.06c.08-.91.16-1.77.25-2.59.08-.82.12-1.69.12-2.59.16-4.12-.33-8.09-1.48-11.92-1.15-3.83-2.95-7.31-5.37-10.44ZM531.98,72.48c.25-2.96,1.05-5.7,2.41-8.21,1.36-2.51,3.29-4.55,5.81-6.11,2.51-1.56,5.66-2.35,9.45-2.35,3.46,0,6.42.72,8.89,2.16,2.47,1.44,4.4,3.42,5.8,5.93,1.4,2.51,2.14,5.37,2.22,8.58h-34.58Z"/>
      <path d="M640.74,48.83c-3.58-2.67-8.5-4.01-14.76-4.01-2.47,0-5.02.35-7.66,1.05-2.64.7-5.11,1.77-7.41,3.21-2.31,1.44-4.28,3.36-5.93,5.74l-.62-9.14h-12.1v65.09h12.72v-30.51c0-4.53.7-8.6,2.1-12.23,1.4-3.62,3.46-6.5,6.18-8.65,2.72-2.14,6.05-3.21,10-3.21,3.21,0,5.76.6,7.66,1.79,1.89,1.19,3.35,2.8,4.38,4.82,1.03,2.02,1.71,4.3,2.04,6.85.33,2.55.49,5.15.49,7.78v33.35h12.85v-35.94c0-5.68-.76-10.76-2.29-15.25-1.52-4.49-4.08-8.07-7.66-10.75Z"/>
      <path d="M712.19,49.08c-4.69-2.84-10.42-4.26-17.17-4.26s-12.48,1.42-17.17,4.26-8.28,6.75-10.75,11.73c-2.47,4.98-3.71,10.81-3.71,17.48s1.21,12.39,3.64,17.42c2.43,5.02,5.99,8.91,10.68,11.67,4.69,2.76,10.42,4.14,17.17,4.14s12.58-1.38,17.23-4.14c4.65-2.76,8.19-6.65,10.62-11.67,2.43-5.02,3.64-10.79,3.64-17.29s-1.19-12.52-3.58-17.54c-2.39-5.02-5.93-8.95-10.62-11.79ZM711.82,89.22c-1.32,3.33-3.36,5.99-6.11,7.97-2.76,1.98-6.36,2.96-10.81,2.96s-7.95-.99-10.75-2.96c-2.8-1.98-4.84-4.61-6.11-7.91-1.28-3.29-1.91-6.96-1.91-10.99s.64-7.58,1.91-10.87c1.28-3.29,3.31-5.95,6.11-7.97,2.8-2.02,6.38-3.03,10.75-3.03s8.05,1.01,10.81,3.03c2.76,2.02,4.8,4.67,6.11,7.97,1.32,3.29,1.98,6.92,1.98,10.87s-.66,7.6-1.98,10.93Z"/>
      <polygon points="821.5 45.68 807.42 97.43 792.35 45.68 776.42 45.68 761.35 97.43 747.02 45.68 732.82 45.68 753.07 110.77 769.25 110.77 784.2 61 799.27 110.77 815.45 110.77 835.7 45.68 821.5 45.68"/>
    </g>
  </g>
</svg>